{
    "patcher": {
        "fileversion": 1,
        "appversion": {
            "major": 9,
            "minor": 1,
            "revision": 2,
            "architecture": "x64",
            "modernui": 1
        },
        "classnamespace": "box",
        "rect": [ 34.0, 87.0, 898.0, 866.0 ],
        "boxes": [
            {
                "box": {
                    "id": "obj-2",
                    "linecount": 4,
                    "maxclass": "comment",
                    "numinlets": 1,
                    "numoutlets": 0,
                    "patching_rect": [ 17.0, 55.0, 153.0, 60.0 ],
                    "text": "Generative Harmonizer\nby Umut Eldem\n\nhttps://youtu.be/i0ggtkI_7f4"
                }
            },
            {
                "box": {
                    "id": "obj-141",
                    "lastchannelcount": 0,
                    "maxclass": "live.gain~",
                    "numinlets": 2,
                    "numoutlets": 5,
                    "outlettype": [ "signal", "signal", "", "float", "list" ],
                    "parameter_enable": 1,
                    "patching_rect": [ 422.0, 605.0, 48.0, 136.0 ],
                    "saved_attribute_attributes": {
                        "valueof": {
                            "parameter_initial": [ -20.153096842276142 ],
                            "parameter_initial_enable": 1,
                            "parameter_longname": "live.gain~[3]",
                            "parameter_mmax": 6.0,
                            "parameter_mmin": -70.0,
                            "parameter_modmode": 3,
                            "parameter_shortname": "live.gain~[3]",
                            "parameter_type": 0,
                            "parameter_unitstyle": 4
                        }
                    },
                    "varname": "live.gain~[3]"
                }
            },
            {
                "box": {
                    "id": "obj-136",
                    "maxclass": "message",
                    "numinlets": 2,
                    "numoutlets": 1,
                    "outlettype": [ "" ],
                    "patching_rect": [ 207.0, 266.0, 95.0, 22.0 ],
                    "text": "pitchshiftcent $1"
                }
            },
            {
                "box": {
                    "id": "obj-137",
                    "maxclass": "newobj",
                    "numinlets": 2,
                    "numoutlets": 1,
                    "outlettype": [ "int" ],
                    "patching_rect": [ 207.0, 194.0, 37.0, 22.0 ],
                    "text": "* 100"
                }
            },
            {
                "box": {
                    "format": 6,
                    "id": "obj-138",
                    "maxclass": "flonum",
                    "numinlets": 1,
                    "numoutlets": 2,
                    "outlettype": [ "", "bang" ],
                    "parameter_enable": 0,
                    "patching_rect": [ 207.0, 231.0, 50.0, 22.0 ]
                }
            },
            {
                "box": {
                    "id": "obj-139",
                    "maxclass": "button",
                    "numinlets": 1,
                    "numoutlets": 1,
                    "outlettype": [ "bang" ],
                    "parameter_enable": 0,
                    "patching_rect": [ 207.0, 121.0, 24.0, 24.0 ]
                }
            },
            {
                "box": {
                    "id": "obj-140",
                    "maxclass": "newobj",
                    "numinlets": 2,
                    "numoutlets": 1,
                    "outlettype": [ "" ],
                    "patching_rect": [ 207.0, 160.0, 130.0, 22.0 ],
                    "text": "random @range -4 -14"
                }
            },
            {
                "box": {
                    "id": "obj-135",
                    "maxclass": "message",
                    "numinlets": 2,
                    "numoutlets": 1,
                    "outlettype": [ "" ],
                    "patching_rect": [ 633.0, 271.0, 95.0, 22.0 ],
                    "text": "pitchshiftcent $1"
                }
            },
            {
                "box": {
                    "id": "obj-133",
                    "maxclass": "newobj",
                    "numinlets": 2,
                    "numoutlets": 1,
                    "outlettype": [ "int" ],
                    "patching_rect": [ 633.0, 199.0, 37.0, 22.0 ],
                    "text": "* 100"
                }
            },
            {
                "box": {
                    "format": 6,
                    "id": "obj-132",
                    "maxclass": "flonum",
                    "numinlets": 1,
                    "numoutlets": 2,
                    "outlettype": [ "", "bang" ],
                    "parameter_enable": 0,
                    "patching_rect": [ 633.0, 236.0, 50.0, 22.0 ]
                }
            },
            {
                "box": {
                    "id": "obj-130",
                    "maxclass": "button",
                    "numinlets": 1,
                    "numoutlets": 1,
                    "outlettype": [ "bang" ],
                    "parameter_enable": 0,
                    "patching_rect": [ 633.0, 125.0, 24.0, 24.0 ]
                }
            },
            {
                "box": {
                    "id": "obj-128",
                    "maxclass": "newobj",
                    "numinlets": 2,
                    "numoutlets": 1,
                    "outlettype": [ "" ],
                    "patching_rect": [ 633.0, 164.0, 122.0, 22.0 ],
                    "text": "random @range 3 20"
                }
            },
            {
                "box": {
                    "id": "obj-127",
                    "maxclass": "button",
                    "numinlets": 1,
                    "numoutlets": 1,
                    "outlettype": [ "bang" ],
                    "parameter_enable": 0,
                    "patching_rect": [ 423.0, 24.0, 64.14141100645065, 64.14141100645065 ]
                }
            },
            {
                "box": {
                    "id": "obj-125",
                    "maxclass": "number",
                    "numinlets": 1,
                    "numoutlets": 2,
                    "outlettype": [ "", "bang" ],
                    "parameter_enable": 0,
                    "patching_rect": [ 522.0, 421.0, 50.0, 22.0 ]
                }
            },
            {
                "box": {
                    "id": "obj-123",
                    "maxclass": "newobj",
                    "numinlets": 2,
                    "numoutlets": 2,
                    "outlettype": [ "", "" ],
                    "patching_rect": [ 522.0, 387.0, 77.0, 22.0 ],
                    "text": "route latency"
                }
            },
            {
                "box": {
                    "id": "obj-122",
                    "maxclass": "newobj",
                    "numinlets": 2,
                    "numoutlets": 1,
                    "outlettype": [ "signal" ],
                    "patching_rect": [ 423.0, 335.0, 81.0, 22.0 ],
                    "text": "delay~ 10000"
                }
            },
            {
                "box": {
                    "id": "obj-121",
                    "linecount": 2,
                    "maxclass": "message",
                    "numinlets": 2,
                    "numoutlets": 1,
                    "outlettype": [ "" ],
                    "patching_rect": [ 296.0, 397.0, 50.0, 35.0 ],
                    "text": "latency 4096"
                }
            },
            {
                "box": {
                    "id": "obj-120",
                    "linecount": 2,
                    "maxclass": "message",
                    "numinlets": 2,
                    "numoutlets": 1,
                    "outlettype": [ "" ],
                    "patching_rect": [ 791.0, 400.0, 50.0, 35.0 ],
                    "text": "latency 4096"
                }
            },
            {
                "box": {
                    "id": "obj-118",
                    "lastchannelcount": 0,
                    "maxclass": "live.gain~",
                    "numinlets": 2,
                    "numoutlets": 5,
                    "outlettype": [ "signal", "signal", "", "float", "list" ],
                    "parameter_enable": 1,
                    "patching_rect": [ 423.0, 418.0, 48.0, 136.0 ],
                    "saved_attribute_attributes": {
                        "valueof": {
                            "parameter_longname": "live.gain~[2]",
                            "parameter_mmax": 6.0,
                            "parameter_mmin": -70.0,
                            "parameter_modmode": 3,
                            "parameter_shortname": "live.gain~",
                            "parameter_type": 0,
                            "parameter_unitstyle": 4
                        }
                    },
                    "varname": "live.gain~[2]"
                }
            },
            {
                "box": {
                    "id": "obj-117",
                    "lastchannelcount": 0,
                    "maxclass": "live.gain~",
                    "numinlets": 2,
                    "numoutlets": 5,
                    "outlettype": [ "signal", "signal", "", "float", "list" ],
                    "parameter_enable": 1,
                    "patching_rect": [ 202.0, 397.0, 48.0, 136.0 ],
                    "saved_attribute_attributes": {
                        "valueof": {
                            "parameter_longname": "live.gain~[1]",
                            "parameter_mmax": 6.0,
                            "parameter_mmin": -70.0,
                            "parameter_modmode": 3,
                            "parameter_shortname": "live.gain~",
                            "parameter_type": 0,
                            "parameter_unitstyle": 4
                        }
                    },
                    "varname": "live.gain~[1]"
                }
            },
            {
                "box": {
                    "id": "obj-116",
                    "linecount": 3,
                    "maxclass": "newobj",
                    "numinlets": 2,
                    "numoutlets": 2,
                    "outlettype": [ "signal", "" ],
                    "patching_rect": [ 207.0, 314.0, 144.94948786497116, 49.0 ],
                    "text": "pitchshift~ @quality best @pitchshiftcent -500 @reportlatency 1"
                }
            },
            {
                "box": {
                    "id": "obj-115",
                    "linecount": 3,
                    "maxclass": "newobj",
                    "numinlets": 2,
                    "numoutlets": 2,
                    "outlettype": [ "signal", "" ],
                    "patching_rect": [ 609.0, 314.0, 142.92928594350815, 49.0 ],
                    "text": "pitchshift~ @quality best @pitchshiftcent 500 @reportlatency 1"
                }
            },
            {
                "box": {
                    "id": "obj-114",
                    "maxclass": "message",
                    "numinlets": 2,
                    "numoutlets": 1,
                    "outlettype": [ "" ],
                    "patching_rect": [ 423.0, 177.0, 29.5, 22.0 ],
                    "text": "1"
                }
            },
            {
                "box": {
                    "id": "obj-112",
                    "maxclass": "comment",
                    "numinlets": 1,
                    "numoutlets": 0,
                    "patching_rect": [ 468.0, 794.0, 48.0, 20.0 ],
                    "text": "ezdac~"
                }
            },
            {
                "box": {
                    "id": "obj-110",
                    "maxclass": "ezdac~",
                    "numinlets": 2,
                    "numoutlets": 0,
                    "patching_rect": [ 418.0, 787.0, 45.0, 45.0 ]
                }
            },
            {
                "box": {
                    "id": "obj-109",
                    "lastchannelcount": 0,
                    "maxclass": "live.gain~",
                    "numinlets": 2,
                    "numoutlets": 5,
                    "outlettype": [ "signal", "signal", "", "float", "list" ],
                    "parameter_enable": 1,
                    "patching_rect": [ 601.0, 393.0, 48.0, 136.0 ],
                    "saved_attribute_attributes": {
                        "valueof": {
                            "parameter_longname": "live.gain~",
                            "parameter_mmax": 6.0,
                            "parameter_mmin": -70.0,
                            "parameter_modmode": 3,
                            "parameter_shortname": "live.gain~",
                            "parameter_type": 0,
                            "parameter_unitstyle": 4
                        }
                    },
                    "varname": "live.gain~"
                }
            },
            {
                "box": {
                    "data": {
                        "clips": [
                            {
                                "absolutepath": "vibes-a1.aif",
                                "filename": "vibes-a1.aif",
                                "filekind": "audiofile",
                                "id": "u810008107",
                                "loop": 0,
                                "content_state": {                                }
                            }
                        ]
                    },
                    "id": "obj-108",
                    "maxclass": "playlist~",
                    "mode": "basic",
                    "numinlets": 1,
                    "numoutlets": 5,
                    "outlettype": [ "signal", "signal", "signal", "", "dictionary" ],
                    "parameter_enable": 0,
                    "patching_rect": [ 423.0, 223.0, 150.0, 30.0 ],
                    "quality": "basic",
                    "saved_attribute_attributes": {
                        "candicane2": {
                            "expression": ""
                        },
                        "candicane3": {
                            "expression": ""
                        },
                        "candicane4": {
                            "expression": ""
                        },
                        "candicane5": {
                            "expression": ""
                        },
                        "candicane6": {
                            "expression": ""
                        },
                        "candicane7": {
                            "expression": ""
                        },
                        "candicane8": {
                            "expression": ""
                        }
                    }
                }
            }
        ],
        "lines": [
            {
                "patchline": {
                    "destination": [ "obj-115", 0 ],
                    "order": 0,
                    "source": [ "obj-108", 0 ]
                }
            },
            {
                "patchline": {
                    "destination": [ "obj-116", 0 ],
                    "order": 2,
                    "source": [ "obj-108", 0 ]
                }
            },
            {
                "patchline": {
                    "destination": [ "obj-122", 0 ],
                    "order": 1,
                    "source": [ "obj-108", 0 ]
                }
            },
            {
                "patchline": {
                    "destination": [ "obj-141", 1 ],
                    "source": [ "obj-109", 1 ]
                }
            },
            {
                "patchline": {
                    "destination": [ "obj-141", 0 ],
                    "source": [ "obj-109", 0 ]
                }
            },
            {
                "patchline": {
                    "destination": [ "obj-108", 0 ],
                    "source": [ "obj-114", 0 ]
                }
            },
            {
                "patchline": {
                    "destination": [ "obj-109", 1 ],
                    "order": 0,
                    "source": [ "obj-115", 0 ]
                }
            },
            {
                "patchline": {
                    "destination": [ "obj-109", 0 ],
                    "order": 1,
                    "source": [ "obj-115", 0 ]
                }
            },
            {
                "patchline": {
                    "destination": [ "obj-120", 1 ],
                    "order": 0,
                    "source": [ "obj-115", 1 ]
                }
            },
            {
                "patchline": {
                    "destination": [ "obj-123", 0 ],
                    "order": 1,
                    "source": [ "obj-115", 1 ]
                }
            },
            {
                "patchline": {
                    "destination": [ "obj-117", 1 ],
                    "order": 0,
                    "source": [ "obj-116", 0 ]
                }
            },
            {
                "patchline": {
                    "destination": [ "obj-117", 0 ],
                    "order": 1,
                    "source": [ "obj-116", 0 ]
                }
            },
            {
                "patchline": {
                    "destination": [ "obj-121", 1 ],
                    "source": [ "obj-116", 1 ]
                }
            },
            {
                "patchline": {
                    "destination": [ "obj-141", 1 ],
                    "source": [ "obj-117", 1 ]
                }
            },
            {
                "patchline": {
                    "destination": [ "obj-141", 0 ],
                    "source": [ "obj-117", 0 ]
                }
            },
            {
                "patchline": {
                    "destination": [ "obj-141", 1 ],
                    "source": [ "obj-118", 1 ]
                }
            },
            {
                "patchline": {
                    "destination": [ "obj-141", 0 ],
                    "source": [ "obj-118", 0 ]
                }
            },
            {
                "patchline": {
                    "destination": [ "obj-118", 1 ],
                    "order": 0,
                    "source": [ "obj-122", 0 ]
                }
            },
            {
                "patchline": {
                    "destination": [ "obj-118", 0 ],
                    "order": 1,
                    "source": [ "obj-122", 0 ]
                }
            },
            {
                "patchline": {
                    "destination": [ "obj-125", 0 ],
                    "source": [ "obj-123", 0 ]
                }
            },
            {
                "patchline": {
                    "destination": [ "obj-122", 1 ],
                    "source": [ "obj-125", 0 ]
                }
            },
            {
                "patchline": {
                    "destination": [ "obj-114", 0 ],
                    "order": 1,
                    "source": [ "obj-127", 0 ]
                }
            },
            {
                "patchline": {
                    "destination": [ "obj-130", 0 ],
                    "order": 0,
                    "source": [ "obj-127", 0 ]
                }
            },
            {
                "patchline": {
                    "destination": [ "obj-139", 0 ],
                    "order": 2,
                    "source": [ "obj-127", 0 ]
                }
            },
            {
                "patchline": {
                    "destination": [ "obj-133", 0 ],
                    "source": [ "obj-128", 0 ]
                }
            },
            {
                "patchline": {
                    "destination": [ "obj-128", 0 ],
                    "source": [ "obj-130", 0 ]
                }
            },
            {
                "patchline": {
                    "destination": [ "obj-135", 0 ],
                    "source": [ "obj-132", 0 ]
                }
            },
            {
                "patchline": {
                    "destination": [ "obj-132", 0 ],
                    "source": [ "obj-133", 0 ]
                }
            },
            {
                "patchline": {
                    "destination": [ "obj-115", 0 ],
                    "source": [ "obj-135", 0 ]
                }
            },
            {
                "patchline": {
                    "destination": [ "obj-116", 0 ],
                    "source": [ "obj-136", 0 ]
                }
            },
            {
                "patchline": {
                    "destination": [ "obj-138", 0 ],
                    "source": [ "obj-137", 0 ]
                }
            },
            {
                "patchline": {
                    "destination": [ "obj-136", 0 ],
                    "source": [ "obj-138", 0 ]
                }
            },
            {
                "patchline": {
                    "destination": [ "obj-140", 0 ],
                    "source": [ "obj-139", 0 ]
                }
            },
            {
                "patchline": {
                    "destination": [ "obj-137", 0 ],
                    "source": [ "obj-140", 0 ]
                }
            },
            {
                "patchline": {
                    "destination": [ "obj-110", 1 ],
                    "source": [ "obj-141", 1 ]
                }
            },
            {
                "patchline": {
                    "destination": [ "obj-110", 0 ],
                    "source": [ "obj-141", 0 ]
                }
            }
        ],
        "parameters": {
            "obj-109": [ "live.gain~", "live.gain~", 0 ],
            "obj-117": [ "live.gain~[1]", "live.gain~", 0 ],
            "obj-118": [ "live.gain~[2]", "live.gain~", 0 ],
            "obj-141": [ "live.gain~[3]", "live.gain~[3]", 0 ],
            "inherited_shortname": 1
        },
        "autosave": 0
    }
}